<svg xmlns="http://www.w3.org/2000/svg" width="918.667" height="333.333" viewBox="0 0 918.667 333.333">
  <path fill="#188fd7" d="M142.027 163.456c-2.046.476-4.003-.38-7.27-1.373-3.056-.93-4.137-.752-4.137-.752s3.268-2.235 6.465-3.706c3.246-1.495 6.018-1.572 7.307 1.4.848 1.955-.69 4.043-2.365 4.432zM158.284 39.1s-.027 10.62 27.73 27.483c53.893 32.742 53.71 62.758 53.71 69.058 0 26.76-27.85 44.057-40.77 30.057 0 0 12.678-9.41 12.678-23.88 0 0-9.3 6.128-14.16 7.186 0 0 6.34-11.2 3.383-30.854 0 0-5.072 9.93-21.344 17.962 0 0 6.34-14.16.423-27.684 0 0 1.268 16.907-37.193 34.87-38.46 17.962-26.627 35.925-26.627 35.925s7.667-8.143 20.683-2.424c17.61 7.735 10.493 38.78-17.824 38.78-27.57 0-45.666-29.984-45.666-53.397 0-9.68 1.05-27.49 18.538-47.078 13.91-15.58 31.064-23.8 34.746-41.028C107.527 91.74 73.155 103.27 52.715 133.5c-18.36 27.15-12.4 63.065-9.094 74.114 14.99 50.102 61.44 86.618 116.417 86.618 67.102 0 122.198-53.696 122.198-120.797 0-101.586-96.575-112.364-123.95-134.335"/>
  <path fill="#059be0" d="M282.235 173.435c0-20.104-3.823-36.606-10.103-50.387 1.34 4.295 11.664 41.067-18.004 70.735-17.584 17.584-47.503 23.668-71.556 4.444 0 0 3.048 48.263-54.12 55.38-37.33 4.646-66.712-19.142-79.46-49.443-8.862-21.064-9.68-45.275.454-65.267-14.317 26.32-8.915 58.387-5.825 68.717 14.99 50.102 61.44 86.618 116.417 86.618 67.102 0 122.198-53.696 122.198-120.797"/>
  <path fill="#40c1ea" d="M269.887 226.42c-6.342 1.717-56.002 13.53-87.315-28.193 0 0 14.555 56.482-47.287 93.378 8.003 1.66 16.26 2.627 24.752 2.627 48.05 0 89.934-27.54 109.85-67.812"/>
  <path fill="#61cbe5" d="M242.917 262.17c-38.832-19.995-60.345-63.943-60.345-63.943 17.315 42.228 9.804 75.163 2.05 93.55 22.182-4.486 42.218-14.94 58.295-29.608M168.56 152.893c-.956-.012-1.91-.044-2.857-.097-1.522-.087-3.003-.13-4.438-.13-10.026 0-17.96 2.027-24.19 4.962.004 0 .008-.003.01-.004 3.246-1.495 6.018-1.572 7.307 1.4.848 1.955-.69 4.043-2.365 4.432-2.046.476-4.003-.38-7.27-1.373-2.743-.835-3.894-.776-4.102-.755-11.128 7.728-14.525 17.843-14.542 17.895.003-.004 2.745-2.912 7.73-4.03h.004c6.333-1.704 16.3-3.44 27.46-9.193 7.373-3.8 13.02-8.533 17.255-13.107"/>
  <path fill="#059be0" d="M153.227 146.496c11.225-3.408 19.713-6.913 26.334-10.42 0 0 6.34-14.165.42-27.7 0 0 1.27 16.92-37.22 34.895-38.49 17.977-26.647 35.953-26.647 35.953s-6.38-19.53 37.114-32.727M169.487 152.9c10.677 0 21.652-2.335 28.052-3.913v-.004c1.48-2.682 2.797-7.035 3.453-11.132 1.044-6.53 1.152-11.386-.055-20.21 0 0-3.136 8.78-21.377 18.437 0 0-2.945 8.116-11 16.816.31.004.617.007.926.007"/>
  <path fill="#059be0" d="M197.54 148.985c-9.465 17.16-28.595 24.846-45.128 24.846 2.425 0 4.992.023 7.635.023 13.91 0 29.946-.604 38.968-8.165 6.582-5.52 12.593-12.81 12.705-23.924 0 0-9.003 5.943-14.18 7.22"/>
  <path fill="#40c1ea" d="M161.265 152.667c1.435 0 2.916.042 4.438.13.946.052 1.9.084 2.858.096 8.056-8.7 11-16.816 11-16.816-6.62 3.506-15.108 7.01-26.333 10.42-43.494 13.196-37.114 32.726-37.114 32.726s8.863-26.56 45.152-26.556"/>
  <path fill="#40c1ea" d="M197.54 148.988l-.067.015c-6.41 1.58-17.345 3.897-27.986 3.897-.31 0-.618-.003-.926-.007-4.233 4.574-9.88 9.307-17.252 13.107-11.16 5.753-21.128 7.49-27.462 9.192.383-.085.777-.16 1.184-.223 1.373-.277 3.015-.49 5.08-.654 5.18-.433 12.218-.485 22.302-.485 16.533 0 35.66-7.685 45.127-24.842"/>
  <path fill="#61cbe5" d="M351.116 157.682c4.888 0 9.444-1.014 13.664-3.044 4.22-2.03 7.84-5.004 10.863-8.925 3.02-3.92 5.372-8.693 7.056-14.322 1.683-5.625 2.524-11.99 2.524-19.093 0-7.057-.84-13.4-2.525-19.027-1.685-5.626-4.037-10.377-7.057-14.252-3.022-3.874-6.643-6.825-10.863-8.854-4.22-2.03-8.776-3.046-13.664-3.046-5.028 0-9.617 1.016-13.768 3.046-4.15 2.03-7.737 4.98-10.757 8.854-3.02 3.875-5.386 8.626-7.09 14.252-1.708 5.628-2.56 11.97-2.56 19.027 0 7.103.852 13.468 2.56 19.094 1.704 5.63 4.07 10.403 7.09 14.323 3.02 3.92 6.607 6.896 10.758 8.925 4.15 2.03 8.74 3.044 13.768 3.044zm0 9.063c-6.41 0-12.315-1.304-17.71-3.91-5.398-2.604-10.057-6.27-13.977-11-3.922-4.726-6.987-10.446-9.202-17.156-2.213-6.712-3.32-14.174-3.32-22.383 0-8.21 1.107-15.67 3.32-22.38 2.215-6.713 5.28-12.43 9.2-17.16 3.92-4.727 8.58-8.38 13.977-10.965 5.396-2.583 11.3-3.875 17.71-3.875 6.412 0 12.316 1.292 17.713 3.875 5.396 2.584 10.055 6.238 13.975 10.965 3.92 4.73 6.988 10.447 9.2 17.16 2.216 6.71 3.322 14.17 3.322 22.38 0 8.21-1.106 15.67-3.32 22.382-2.214 6.71-5.282 12.43-9.202 17.156-3.92 4.728-8.58 8.395-13.975 11-5.397 2.605-11.3 3.91-17.712 3.91M446.66 157.82c3.32 0 6.376-.6 9.168-1.8 2.79-1.198 5.176-3.02 7.16-5.464 1.983-2.444 3.54-5.58 4.67-9.41 1.13-3.827 1.695-8.394 1.695-13.698 0-5.166-.588-9.662-1.764-13.49-1.177-3.83-2.814-7-4.913-9.513-2.1-2.515-4.51-4.383-7.23-5.605-2.722-1.222-5.65-1.834-8.786-1.834-4.612 0-8.74 1.107-12.384 3.322-3.644 2.213-7.264 5.212-10.86 8.993v36.324c3.688 3.968 7.4 6.988 11.137 9.063 3.736 2.075 7.772 3.113 12.108 3.113zm-33-67.732h9.755v10.585c3.044-3.18 6.55-5.984 10.516-8.405 3.967-2.422 8.787-3.632 14.46-3.632 4.243 0 8.255.808 12.038 2.42 3.78 1.616 7.033 4.002 9.756 7.16 2.72 3.16 4.888 7.174 6.503 12.04 1.614 4.866 2.42 10.55 2.42 17.053 0 6.55-.806 12.258-2.42 17.123-1.615 4.867-3.828 8.88-6.642 12.04-2.814 3.158-6.158 5.532-10.032 7.124-3.874 1.592-8.05 2.387-12.522 2.387-4.797 0-9.178-1.062-13.145-3.183-3.966-2.12-7.61-4.864-10.93-8.23v38.535h-9.755V90.088M547.116 121.498c-.323-3.46-.957-6.698-1.9-9.72-.948-3.02-2.285-5.65-4.015-7.888-1.728-2.236-3.872-3.966-6.432-5.19-2.56-1.22-5.5-1.832-8.823-1.832-2.72 0-5.326.496-7.817 1.488-2.49.992-4.763 2.502-6.815 4.532-2.052 2.03-3.782 4.577-5.188 7.644-1.408 3.068-2.342 6.722-2.802 10.966zm-21.032 44.833c-4.336 0-8.487-.83-12.452-2.49-3.968-1.66-7.44-4.152-10.413-7.472-2.976-3.322-5.363-7.38-7.16-12.177-1.8-4.795-2.7-10.422-2.7-16.88 0-6.596.97-12.326 2.907-17.193 1.936-4.865 4.472-8.88 7.61-12.037 3.135-3.16 6.628-5.523 10.482-7.092 3.848-1.568 7.757-2.352 11.724-2.352 4.383 0 8.43.83 12.143 2.49 3.712 1.66 6.918 4.116 9.616 7.368 2.698 3.252 4.832 7.31 6.4 12.176 1.568 4.867 2.352 10.46 2.352 16.778v1.867h-53.41c0 4.614.632 8.695 1.902 12.246 1.268 3.553 2.964 6.552 5.085 8.996 2.12 2.445 4.6 4.313 7.437 5.604 2.835 1.292 5.87 1.937 9.097 1.937 5.58 0 10.136-1.164 13.664-3.494 3.53-2.33 6.723-5.707 9.583-10.135l6.088 4.842c-3.32 5.26-7.367 9.41-12.14 12.454-4.773 3.044-10.713 4.567-17.816 4.567M575 90.088h9.753v11.762c3.598-3.598 7.76-6.7 12.488-9.306 4.728-2.604 10.067-3.908 16.017-3.908 7.38 0 12.926 1.937 16.64 5.81 3.71 3.875 5.568 9.318 5.568 16.328v53.964h-9.754v-52.165c0-5.257-1.2-9.167-3.598-11.727-2.397-2.56-6.157-3.84-11.276-3.84-4.797 0-9.283 1.154-13.456 3.46-4.176 2.307-8.384 5.49-12.627 9.547v54.725H575v-74.65"/>
  <path fill="#188fd7" d="M697.385 166.47c-7.24 0-13.537-.97-18.886-2.908-5.352-1.937-9.768-4.728-13.25-8.37-3.483-3.644-6.054-8.037-7.714-13.18-1.66-5.143-2.49-10.943-2.49-17.4V59.854h23.107v64.204c0 7.656 1.532 13.515 4.6 17.574 3.067 4.06 8.06 6.088 14.98 6.088 6.78 0 11.68-2.03 14.7-6.088 3.022-4.06 4.532-9.918 4.532-17.574V59.854h22.694v64.62c0 6.458-.832 12.28-2.493 17.47-1.66 5.188-4.21 9.604-7.644 13.247-3.438 3.644-7.83 6.435-13.18 8.372-5.35 1.938-11.67 2.907-18.958 2.907M760.62 164.738V59.854h22.97v104.884h-22.97M837 166.745c-8.67 0-16.177-1.257-22.52-3.77-6.34-2.514-11.91-5.89-16.707-10.137l11.623-15.15c3.367 3.09 7.345 5.65 11.935 7.68 4.59 2.03 9.35 3.044 14.287 3.044 6.964 0 12.027-1.742 15.186-5.224 3.16-3.483 4.74-7.92 4.74-13.32 0-5.948-1.535-10.595-4.602-13.94-3.067-3.343-7.575-5.015-13.524-5.015-3.597 0-7.023.84-10.273 2.525-3.252 1.684-6.24 4.186-8.96 7.507l-14.875-4.636 4.22-56.456h63.65l-1.177 17.435h-44.76l-2.007 23.244c1.8-1.705 4.428-3.216 7.887-4.53 3.46-1.315 7.887-1.972 13.284-1.972 5.535 0 10.435.877 14.7 2.63 4.267 1.752 7.84 4.162 10.725 7.228 2.882 3.068 5.05 6.747 6.502 11.035 1.453 4.29 2.18 8.995 2.18 14.115 0 5.58-.945 10.68-2.837 15.29-1.89 4.613-4.624 8.578-8.198 11.9-3.574 3.32-7.945 5.903-13.11 7.747-5.167 1.845-10.955 2.768-17.366 2.768"/>
  <path fill="#8f8f8f" d="M473.512 257.53v-64.425h22.192q7.515 0 11.47.923 5.537 1.274 9.448 4.614 5.098 4.307 7.603 11.03 2.55 6.68 2.55 15.293 0 7.34-1.715 13.008-1.714 5.67-4.395 9.405-2.68 3.69-5.888 5.844-3.164 2.11-7.69 3.208-4.483 1.1-10.328 1.1H473.51zm8.525-7.604h13.755q6.372 0 9.976-1.186 3.647-1.187 5.8-3.34 3.033-3.032 4.703-8.13 1.715-5.14 1.715-12.436 0-10.108-3.34-15.513-3.296-5.448-8.042-7.294-3.428-1.318-11.03-1.318h-13.536v49.218zM569.49 242.5l8.172 1.01q-1.933 7.163-7.163 11.12-5.23 3.954-13.36 3.954-10.24 0-16.26-6.285-5.976-6.33-5.976-17.71 0-11.778 6.064-18.282t15.732-6.504q9.36 0 15.293 6.372t5.933 17.93q0 .703-.044 2.11h-34.805q.44 7.69 4.35 11.777 3.912 4.087 9.757 4.087 4.35 0 7.427-2.285 3.077-2.286 4.88-7.295zm-25.973-12.788h26.06q-.528-5.89-2.99-8.833-3.778-4.572-9.8-4.572-5.448 0-9.183 3.648-3.692 3.647-4.087 9.756zM600.602 257.53l-17.754-46.67h8.35l10.02 27.948q1.625 4.527 2.987 9.404 1.055-3.69 2.945-8.876l10.37-28.477h8.13l-17.665 46.67h-7.383zM664.762 242.5l8.174 1.01q-1.934 7.163-7.163 11.12-5.23 3.954-13.36 3.954-10.24 0-16.26-6.285-5.976-6.33-5.976-17.71 0-11.778 6.064-18.282 6.066-6.504 15.734-6.504 9.36 0 15.293 6.372 5.932 6.372 5.932 17.93 0 .703-.044 2.11H638.35q.44 7.69 4.35 11.777 3.913 4.087 9.757 4.087 4.35 0 7.427-2.285 3.076-2.286 4.878-7.295zm-25.972-12.788h26.06q-.527-5.89-2.988-8.833-3.78-4.572-9.8-4.572-5.45 0-9.185 3.648-3.69 3.647-4.087 9.756zM682.736 257.53v-64.425h7.91v64.424h-7.91zM700.006 234.194q0-12.964 7.207-19.204 6.02-5.186 14.678-5.186 9.625 0 15.733 6.328 6.11 6.285 6.11 17.403 0 9.01-2.726 14.194-2.68 5.14-7.866 7.997-5.14 2.857-11.25 2.857-9.8 0-15.863-6.285-6.02-6.285-6.02-18.106zm8.13 0q0 8.965 3.91 13.447 3.912 4.44 9.845 4.44 5.89 0 9.8-4.483 3.912-4.482 3.912-13.667 0-8.657-3.955-13.095-3.91-4.483-9.756-4.483-5.932 0-9.843 4.44-3.91 4.437-3.91 13.402zM753.048 275.415V210.86h7.207v6.063q2.55-3.56 5.757-5.317 3.208-1.802 7.778-1.802 5.977 0 10.547 3.076 4.57 3.077 6.9 8.702 2.33 5.58 2.33 12.26 0 7.163-2.594 12.92-2.55 5.713-7.47 8.79-4.88 3.032-10.284 3.032-3.956 0-7.12-1.67-3.12-1.67-5.142-4.22v22.72h-7.91zm7.163-40.957q0 9.008 3.65 13.315 3.646 4.307 8.832 4.307 5.273 0 9.008-4.44 3.78-4.48 3.78-13.842 0-8.92-3.692-13.36-3.647-4.437-8.745-4.437-5.053 0-8.965 4.747-3.867 4.702-3.867 13.71zM835.094 242.5l8.174 1.01q-1.934 7.163-7.163 11.12-5.23 3.954-13.36 3.954-10.24 0-16.26-6.285-5.976-6.33-5.976-17.71 0-11.778 6.064-18.282t15.732-6.504q9.36 0 15.293 6.372 5.932 6.372 5.932 17.93 0 .703-.044 2.11h-34.805q.44 7.69 4.35 11.777 3.912 4.087 9.756 4.087 4.35 0 7.426-2.285 3.076-2.286 4.878-7.295zm-25.972-12.788h26.06q-.527-5.89-2.988-8.833-3.78-4.572-9.8-4.572-5.45 0-9.185 3.648-3.692 3.647-4.088 9.756zM853.156 257.53v-46.67h7.12v7.074q2.723-4.966 5.008-6.548 2.33-1.582 5.098-1.582 4 0 8.13 2.55l-2.725 7.338q-2.9-1.714-5.8-1.714-2.593 0-4.66 1.582-2.064 1.538-2.943 4.307-1.318 4.22-1.318 9.228v24.434h-7.91z" style="line-height:126.99999809%;-inkscape-font-specification:Arial" font-size="90" font-family="Arial" letter-spacing="0" word-spacing="0"/>
</svg>
